PathFileType	4	(X/Y/Z)	/home/mitkof6/dev/sinergia_osimrl/data/02761/02761_PRE/experimental_data/static.trc
DataRate	CameraRate	NumFrames	NumMarkers	Units	OrigDataRate	OrigDataStartFrame	OrigNumFrames
100.000000	100.000000	4	45	mm	100.000000	165	189
Frame#	Time	C7			CLAV			LANK			LASI			LBHD			LELB			LFHD			LFIN			LHEE			LKNE			LKNI			LMED			LMET			LMIF			LPSI			LSHO			LTHI			LTIB			LTOE			LTTU			LWRA			LWRB			RANK			RASI			RBAK			RBHD			RELB			RFHD			RFIN			RHEE			RKNE			RKNI			RMED			RMET			RMIF			RPSI			RSHO			RTHI			RTIB			RTOE			RTTU			RWRA			RWRB			STRN			T10			
		X1	Y1	Z1	X2	Y2	Z2	X3	Y3	Z3	X4	Y4	Z4	X5	Y5	Z5	X6	Y6	Z6	X7	Y7	Z7	X8	Y8	Z8	X9	Y9	Z9	X10	Y10	Z10	X11	Y11	Z11	X12	Y12	Z12	X13	Y13	Z13	X14	Y14	Z14	X15	Y15	Z15	X16	Y16	Z16	X17	Y17	Z17	X18	Y18	Z18	X19	Y19	Z19	X20	Y20	Z20	X21	Y21	Z21	X22	Y22	Z22	X23	Y23	Z23	X24	Y24	Z24	X25	Y25	Z25	X26	Y26	Z26	X27	Y27	Z27	X28	Y28	Z28	X29	Y29	Z29	X30	Y30	Z30	X31	Y31	Z31	X32	Y32	Z32	X33	Y33	Z33	X34	Y34	Z34	X35	Y35	Z35	X36	Y36	Z36	X37	Y37	Z37	X38	Y38	Z38	X39	Y39	Z39	X40	Y40	Z40	X41	Y41	Z41	X42	Y42	Z42	X43	Y43	Z43	X44	Y44	Z44	X45	Y45	Z45	

166	1.65	263.1619873046875	1211.488037109375	-292.4840087890622	375.3299865722656	1142.754028320312	-284.3630065917966	249.5030059814453	59.54199981689463	-432.0369873046875	347.7019958496094	818.9190063476564	-386.8880004882811	292.7770080566406	1338.801025390625	-359.4869995117185	311.864013671875	938.5319824218751	-544.4240112304685	417.7770080566406	1349.9169921875	-334.9379882812497	428.6549987792969	704.6389770507814	-670.0640258789061	194.9340057373047	34.65499877929697	-405.6940002441406	277.6589965820312	440.2390136718751	-426.605987548828	250.0720062255859	417.2539978027344	-307.4370117187499	245.2949981689453	65.33399963378915	-357.7539978027344	344.7369995117188	27.85000038146982	-432.0570068359375	303.2950134277344	65.05400085449227	-384.1080017089844	226.9539947509766	877.4780273437501	-315.4450073242186	303.7309875488281	1162.305053710938	-420.054992675781	267.4559936523438	580.1380004882814	-474.1270141601561	254.3430023193359	248.0910034179689	-488.2630004882812	361.6180114746094	41.99399948120126	-389.3269958496094	312.4119873046875	359.8429870605469	-366.2680053710937	425.0820007324219	744.5830078125001	-611.5609741210936	371.2380065917969	739.3519897460939	-650.6660156249999	249.2030029296875	54.53400039672854	-111.9390029907226	366.5769958496094	804.6539916992188	-186.6560058593748	240.2220001220703	1091.530029296875	-186.4949951171872	252.2830047607422	1321.22802734375	-258.8429870605466	292.9469909667969	963.094970703125	-35.52600097656229	390.1549987792969	1339.572998046875	-212.7039947509763	333.6759948730469	733.8670043945312	97.52700042724625	215.6399993896484	26.63599967956547	-161.2890014648438	269.0369873046875	434.9280090332032	-132.813995361328	279.9549865722656	404.9259948730469	-251.115005493164	287.3340148925781	63.53599929809575	-176.9360046386719	336.2210083007812	29.10600090026857	-63.87599945068359	310.1809997558594	71.31800079345706	-128.5079956054687	233.8930053710938	875.1229858398438	-228.8829956054686	304.0280151367188	1200.859008789062	-156.804992675781	289.7990112304688	572.3330078125	-89.7399978637694	233.5240020751953	230.3820037841797	-72.48500061035151	366.6740112304688	43.41799926757815	-92.95700073242186	313.7520141601562	354.3099975585938	-168.5410003662109	309.0750122070312	766.6799926757812	52.74599838256853	365.322998046875	775.8140258789062	59.52500152587908	413.8789978027344	1010.622985839844	-273.7780151367185	251.0950012207031	959.3629760742189	-271.7829895019529	
167	1.66	263.072998046875	1211.4990234375	-292.4890136718747	375.2699890136719	1142.76904296875	-284.367004394531	249.4940032958984	59.52899932861338	-432.0339965820312	347.6549987792969	818.9290161132814	-386.8999938964842	292.7019958496094	1338.822998046875	-359.4729919433591	311.8559875488281	938.6179809570314	-544.5040283203123	417.7030029296875	1349.931030273438	-334.9200134277341	428.7000122070312	704.7609863281251	-670.1560058593749	194.9309997558594	34.63999938964853	-405.7030029296875	277.6369934082031	440.2420043945314	-426.6199951171874	250.0460052490234	417.2590026855469	-307.4570007324218	245.2929992675781	65.33399963378915	-357.7659912109375	344.7349853515625	27.85099983215342	-432.0549926757812	303.2890014648438	65.0699996948243	-384.1170043945312	226.8630065917969	877.4760131835939	-315.4970092773436	303.6969909667969	1162.35302734375	-420.0729980468747	267.43701171875	580.1359863281251	-474.1390075683593	254.343994140625	248.0930023193361	-488.2760009765624	361.6210021972656	42.00699996948251	-389.3330078125	312.3970031738281	359.8519897460938	-366.2810058593749	425.093994140625	744.6900024414064	-611.6500244140624	371.2770080566406	739.4619750976564	-650.7630004882811	249.1970062255859	54.5289993286133	-111.9390029907226	366.4710083007812	804.6649780273438	-186.6609954833983	240.1089935302734	1091.534057617188	-186.5079956054685	252.2070007324219	1321.239990234375	-258.8299865722653	292.8259887695312	963.0419921875	-35.59899902343729	390.0859985351562	1339.572021484375	-212.6759948730466	333.5580139160156	733.7899780273438	97.40599822998063	215.6450042724609	26.63599967956547	-161.2940063476562	268.9750061035156	434.9249877929688	-132.8320007324218	279.9150085449219	404.9249877929688	-251.1219940185546	287.3340148925781	63.54000091552739	-176.9450073242188	336.2210083007812	29.10799980163576	-63.88100051879882	310.1860046386719	71.32900238037112	-128.5180053710937	233.7579956054688	875.1209716796875	-228.9089965820311	303.947998046875	1200.85400390625	-156.8059997558591	289.7250061035156	572.3380126953125	-89.75599670410143	233.4920043945312	230.3890075683594	-72.48400115966791	366.6669921875	43.41099929809572	-92.94999694824217	313.718994140625	354.3280029296876	-168.5520019531249	308.93798828125	766.6320190429688	52.6419982910158	365.2070007324219	775.7540283203125	59.4269981384279	413.7999877929688	1010.643981933594	-273.7969970703123	250.9929962158203	959.3679809570314	-271.8190002441404	
168	1.67	262.9590148925781	1211.516967773438	-292.4979858398435	375.2070007324219	1142.780029296875	-284.3710021972654	249.4609985351562	59.47499847412119	-432.0050048828125	347.6029968261719	818.9349975585939	-386.9060058593748	292.6279907226562	1338.849975585938	-359.4549865722653	311.8510131835938	938.7030029296876	-544.5789794921873	417.6300048828125	1349.948974609375	-334.8970031738278	428.739013671875	704.8800048828126	-670.2429809570311	194.9250030517578	34.62799835205087	-405.7080078125	277.6130065917969	440.2500000000001	-426.6350097656249	250.0149993896484	417.2669982910157	-307.4750061035155	245.2929992675781	65.33200073242196	-357.7720031738281	344.7349853515625	27.85400009155283	-432.0530090332031	303.2900085449219	65.09899902343759	-384.135009765625	226.6799926757812	877.5159912109376	-315.5669860839842	303.656005859375	1162.39794921875	-420.0899963378903	267.4159851074219	580.1350097656251	-474.147003173828	254.3419952392578	248.0950012207032	-488.2820129394531	361.6180114746094	42.01399993896493	-389.3340148925781	312.3800048828125	359.8609924316407	-366.2940063476562	425.0960083007812	744.7940063476564	-611.7470092773436	371.3099975585938	739.5739746093751	-650.8560180664061	249.1940002441406	54.53400039672854	-111.938003540039	366.3599853515625	804.6669921875	-186.6649932861326	240.0090026855469	1091.551025390625	-186.5110015869138	252.1540069580078	1321.241943359375	-258.7990112304685	292.7149963378906	962.9990234375	-35.66400146484354	390.0169982910156	1339.571044921875	-212.6479949951169	333.4609985351562	733.7119750976562	97.28800201416031	215.6540069580078	26.63599967956547	-161.2980041503906	268.9159851074219	434.9249877929688	-132.8430023193359	279.8710021972656	404.9209899902344	-251.1280059814452	287.3320007324219	63.54700088500981	-176.9490051269531	336.2250061035156	29.11400032043458	-63.8849983215332	310.18798828125	71.33599853515628	-128.5220031738281	233.6119995117188	875.1339721679688	-228.9320068359373	303.8720092773438	1200.85302734375	-156.8040008544919	289.6520080566406	572.3389892578125	-89.76499938964831	233.4649963378906	230.3999938964844	-72.47899627685541	366.6809997558594	43.41799926757815	-92.96700286865233	313.6759948730469	354.3410034179688	-168.5590057373046	308.8009948730469	766.5900268554688	52.52700042724626	365.0920104980469	775.6890258789062	59.32500076293962	413.7219848632812	1010.669982910156	-273.8169860839841	250.8840026855469	959.3850097656251	-271.846984863281	
169	1.68	262.8460083007812	1211.534057617188	-292.5079956054685	375.1430053710938	1142.787963867188	-284.3710021972654	249.4140014648438	59.39500045776376	-431.9570007324219	347.5480041503906	818.9349975585939	-386.9039916992186	292.5559997558594	1338.878051757812	-359.4309997558591	311.843994140625	938.7819824218751	-544.6450195312498	417.5610046386719	1349.968994140625	-334.8680114746091	428.7690124511719	704.9929809570314	-670.3259887695311	194.9179992675781	34.61800003051767	-405.7099914550781	277.5830078125	440.2569885253907	-426.6499938964843	249.9810028076172	417.2730102539063	-307.4880065917968	245.2899932861328	65.32900238037118	-357.7720031738281	344.7340087890625	27.85700035095224	-432.0480041503906	303.2969970703125	65.13400268554696	-384.156005859375	226.4069976806641	877.5949707031251	-315.6589965820311	303.6099853515625	1162.43798828125	-420.1019897460935	267.3900146484375	580.1320190429689	-474.1539916992186	254.3339996337891	248.0959930419923	-488.2820129394531	361.6069946289062	42.01499938964852	-389.3269958496094	312.3569946289062	359.8670043945313	-366.3049926757812	425.0910034179688	744.8939819335939	-611.8469848632811	371.3359985351562	739.6879882812501	-650.9489746093749	249.1959991455078	54.54199981689455	-111.9359970092773	366.2460021972656	804.6640014648438	-186.6629943847655	239.9409942626953	1091.568969726562	-186.5059967041013	252.1109924316406	1321.244018554688	-258.7560119628903	292.6180114746094	962.9639892578125	-35.71900177001932	389.9509887695312	1339.567993164062	-212.61799621582	333.3760070800781	733.6380004882812	97.17099761962906	215.6629943847656	26.63199996948246	-161.302001953125	268.864013671875	434.9240112304688	-132.8470001220702	279.8219909667969	404.9110107421876	-251.1309967041015	287.3290100097656	63.55199813842778	-176.9450073242188	336.2319946289062	29.11800003051759	-63.88600158691406	310.18798828125	71.33599853515628	-128.5180053710937	233.4940032958984	875.14697265625	-228.9550018310545	303.8030090332031	1200.85400390625	-156.7989959716794	289.5809936523438	572.3350219726562	-89.76499938964831	233.4409942626953	230.406005859375	-72.47200012207026	366.7090148925781	43.43500137329104	-92.9919967651367	313.6260070800781	354.3460083007813	-168.5579986572265	308.677001953125	766.5449829101562	52.40800094604509	364.9769897460938	775.6179809570312	59.21799850463884	413.6480102539062	1010.702026367188	-273.835998535156	250.7859954833984	959.4039916992189	-271.8659973144529	
